<mxfile host="app.diagrams.net" modified="2023-05-18T07:40:26.458Z" agent="Mozilla/5.0 (Windows NT 10.0; Win64; x64) AppleWebKit/537.36 (KHTML, like Gecko) Chrome/113.0.0.0 Safari/537.36" etag="PK4_cJl4QvjSYaf_maCS" version="21.3.2" type="github">
  <diagram id="R2lEEEUBdFMjLlhIrx00" name="Page-1">
    <mxGraphModel dx="1434" dy="756" grid="1" gridSize="10" guides="1" tooltips="1" connect="1" arrows="1" fold="1" page="1" pageScale="1" pageWidth="850" pageHeight="1100" math="0" shadow="0" extFonts="Permanent Marker^https://fonts.googleapis.com/css?family=Permanent+Marker">
      <root>
        <mxCell id="0" />
        <mxCell id="1" parent="0" />
        <mxCell id="hdjL2qWN7hHqWyvsiQWv-3" value="顧客" style="swimlane;fontStyle=0;childLayout=stackLayout;horizontal=1;startSize=26;horizontalStack=0;resizeParent=1;resizeParentMax=0;resizeLast=0;collapsible=1;marginBottom=0;align=left;fontSize=12;whiteSpace=wrap;html=1;verticalAlign=top;labelPosition=center;verticalLabelPosition=middle;fillColor=none;strokeColor=none;gradientColor=none;spacingLeft=4;spacingRight=4;" parent="1" vertex="1">
          <mxGeometry x="140" y="100" width="160" height="96" as="geometry">
            <mxRectangle x="150" y="110" width="80" height="30" as="alternateBounds" />
          </mxGeometry>
        </mxCell>
        <mxCell id="hdjL2qWN7hHqWyvsiQWv-25" value="顧客ID" style="text;html=1;align=left;verticalAlign=top;resizable=0;points=[];autosize=1;strokeColor=default;fillColor=none;spacingLeft=4;spacingRight=4;" parent="hdjL2qWN7hHqWyvsiQWv-3" vertex="1">
          <mxGeometry y="26" width="160" height="30" as="geometry" />
        </mxCell>
        <mxCell id="hdjL2qWN7hHqWyvsiQWv-36" value="&lt;span style=&quot;color: rgb(0, 0, 0); font-family: Helvetica; font-size: 12px; font-style: normal; font-variant-ligatures: normal; font-variant-caps: normal; font-weight: 400; letter-spacing: normal; orphans: 2; text-align: left; text-indent: 0px; text-transform: none; widows: 2; word-spacing: 0px; -webkit-text-stroke-width: 0px; background-color: rgb(251, 251, 251); text-decoration-thickness: initial; text-decoration-style: initial; text-decoration-color: initial; float: none; display: inline !important;&quot;&gt;お名前&lt;/span&gt;&lt;br style=&quot;--tw-border-spacing-x: 0; --tw-border-spacing-y: 0; --tw-translate-x: 0; --tw-translate-y: 0; --tw-rotate: 0; --tw-skew-x: 0; --tw-skew-y: 0; --tw-scale-x: 1; --tw-scale-y: 1; --tw-pan-x: ; --tw-pan-y: ; --tw-pinch-zoom: ; --tw-scroll-snap-strictness: proximity; --tw-ordinal: ; --tw-slashed-zero: ; --tw-numeric-figure: ; --tw-numeric-spacing: ; --tw-numeric-fraction: ; --tw-ring-inset: ; --tw-ring-offset-width: 0px; --tw-ring-offset-color: #fff; --tw-ring-color: rgba(59,130,246,.5); --tw-ring-offset-shadow: 0 0 #0000; --tw-ring-shadow: 0 0 #0000; --tw-shadow: 0 0 #0000; --tw-shadow-colored: 0 0 #0000; --tw-blur: ; --tw-brightness: ; --tw-contrast: ; --tw-grayscale: ; --tw-hue-rotate: ; --tw-invert: ; --tw-saturate: ; --tw-sepia: ; --tw-drop-shadow: ; --tw-backdrop-blur: ; --tw-backdrop-brightness: ; --tw-backdrop-contrast: ; --tw-backdrop-grayscale: ; --tw-backdrop-hue-rotate: ; --tw-backdrop-invert: ; --tw-backdrop-opacity: ; --tw-backdrop-saturate: ; --tw-backdrop-sepia: ; border-color: var(--border-color); color: rgb(0, 0, 0); font-family: Helvetica; font-size: 12px; font-style: normal; font-variant-ligatures: normal; font-variant-caps: normal; font-weight: 400; letter-spacing: normal; orphans: 2; text-align: left; text-indent: 0px; text-transform: none; widows: 2; word-spacing: 0px; -webkit-text-stroke-width: 0px; background-color: rgb(251, 251, 251); text-decoration-thickness: initial; text-decoration-style: initial; text-decoration-color: initial;&quot;&gt;&lt;span style=&quot;color: rgb(0, 0, 0); font-family: Helvetica; font-size: 12px; font-style: normal; font-variant-ligatures: normal; font-variant-caps: normal; font-weight: 400; letter-spacing: normal; orphans: 2; text-align: left; text-indent: 0px; text-transform: none; widows: 2; word-spacing: 0px; -webkit-text-stroke-width: 0px; background-color: rgb(251, 251, 251); text-decoration-thickness: initial; text-decoration-style: initial; text-decoration-color: initial; float: none; display: inline !important;&quot;&gt;お電話番号&lt;/span&gt;" style="text;html=1;align=left;verticalAlign=top;resizable=0;points=[];autosize=1;strokeColor=default;fillColor=none;spacingLeft=4;spacingRight=4;" parent="hdjL2qWN7hHqWyvsiQWv-3" vertex="1">
          <mxGeometry y="56" width="160" height="40" as="geometry" />
        </mxCell>
        <mxCell id="hdjL2qWN7hHqWyvsiQWv-37" value="商品" style="swimlane;fontStyle=0;childLayout=stackLayout;horizontal=1;startSize=26;horizontalStack=0;resizeParent=1;resizeParentMax=0;resizeLast=0;collapsible=1;marginBottom=0;align=left;fontSize=12;whiteSpace=wrap;html=1;verticalAlign=top;labelPosition=center;verticalLabelPosition=middle;fillColor=none;strokeColor=none;gradientColor=none;spacingLeft=4;spacingRight=4;" parent="1" vertex="1">
          <mxGeometry x="390" y="310" width="160" height="126" as="geometry">
            <mxRectangle x="150" y="110" width="80" height="30" as="alternateBounds" />
          </mxGeometry>
        </mxCell>
        <mxCell id="hdjL2qWN7hHqWyvsiQWv-38" value="商品ID" style="text;html=1;align=left;verticalAlign=top;resizable=0;points=[];autosize=1;strokeColor=default;fillColor=none;spacingLeft=4;spacingRight=4;" parent="hdjL2qWN7hHqWyvsiQWv-37" vertex="1">
          <mxGeometry y="26" width="160" height="30" as="geometry" />
        </mxCell>
        <mxCell id="hdjL2qWN7hHqWyvsiQWv-39" value="商品名&lt;br&gt;金額&lt;br&gt;税込金額&lt;br&gt;商品区分" style="text;html=1;align=left;verticalAlign=top;resizable=0;points=[];autosize=1;strokeColor=default;fillColor=none;spacingLeft=4;spacingRight=4;" parent="hdjL2qWN7hHqWyvsiQWv-37" vertex="1">
          <mxGeometry y="56" width="160" height="70" as="geometry" />
        </mxCell>
        <mxCell id="hdjL2qWN7hHqWyvsiQWv-40" value="注文" style="swimlane;fontStyle=0;childLayout=stackLayout;horizontal=1;startSize=26;horizontalStack=0;resizeParent=1;resizeParentMax=0;resizeLast=0;collapsible=1;marginBottom=0;align=left;fontSize=12;whiteSpace=wrap;html=1;verticalAlign=top;labelPosition=center;verticalLabelPosition=middle;fillColor=none;strokeColor=none;gradientColor=none;spacingLeft=4;spacingRight=4;" parent="1" vertex="1">
          <mxGeometry x="140" y="310" width="160" height="86" as="geometry">
            <mxRectangle x="150" y="110" width="80" height="30" as="alternateBounds" />
          </mxGeometry>
        </mxCell>
        <mxCell id="hdjL2qWN7hHqWyvsiQWv-41" value="注文ID" style="text;html=1;align=left;verticalAlign=top;resizable=0;points=[];autosize=1;strokeColor=default;fillColor=none;spacingLeft=4;spacingRight=4;" parent="hdjL2qWN7hHqWyvsiQWv-40" vertex="1">
          <mxGeometry y="26" width="160" height="30" as="geometry" />
        </mxCell>
        <mxCell id="hdjL2qWN7hHqWyvsiQWv-42" value="ご注文数" style="text;html=1;align=left;verticalAlign=top;resizable=0;points=[];autosize=1;strokeColor=default;fillColor=none;spacingLeft=4;spacingRight=4;" parent="hdjL2qWN7hHqWyvsiQWv-40" vertex="1">
          <mxGeometry y="56" width="160" height="30" as="geometry" />
        </mxCell>
        <mxCell id="hdjL2qWN7hHqWyvsiQWv-44" value="商品カテゴリ" style="swimlane;fontStyle=0;childLayout=stackLayout;horizontal=1;startSize=26;horizontalStack=0;resizeParent=1;resizeParentMax=0;resizeLast=0;collapsible=1;marginBottom=0;align=left;fontSize=12;whiteSpace=wrap;html=1;verticalAlign=top;labelPosition=center;verticalLabelPosition=middle;fillColor=none;strokeColor=none;gradientColor=none;spacingLeft=4;spacingRight=4;" parent="1" vertex="1">
          <mxGeometry x="640" y="310" width="160" height="86" as="geometry">
            <mxRectangle x="150" y="110" width="80" height="30" as="alternateBounds" />
          </mxGeometry>
        </mxCell>
        <mxCell id="hdjL2qWN7hHqWyvsiQWv-45" value="商品カテゴリID" style="text;html=1;align=left;verticalAlign=top;resizable=0;points=[];autosize=1;strokeColor=default;fillColor=none;spacingLeft=4;spacingRight=4;" parent="hdjL2qWN7hHqWyvsiQWv-44" vertex="1">
          <mxGeometry y="26" width="160" height="30" as="geometry" />
        </mxCell>
        <mxCell id="hdjL2qWN7hHqWyvsiQWv-46" value="商品カテゴリ名" style="text;html=1;align=left;verticalAlign=top;resizable=0;points=[];autosize=1;strokeColor=default;fillColor=none;spacingLeft=4;spacingRight=4;" parent="hdjL2qWN7hHqWyvsiQWv-44" vertex="1">
          <mxGeometry y="56" width="160" height="30" as="geometry" />
        </mxCell>
      </root>
    </mxGraphModel>
  </diagram>
</mxfile>
